<svg width="630" height="630" viewBox="0 0 630 630" fill="none" xmlns="http://www.w3.org/2000/svg">
<g clip-path="url(#clip0_50_2)">
<rect width="630" height="630" rx="315" fill="#3B0094"/>
<g clip-path="url(#clip1_50_2)">
<path d="M-559 480.516L-514.483 452.413C-469.966 424.311 -380.933 368.107 -296.33 335.367C-211.81 303.068 -131.514 293.132 -52.5279 290.135C26.5829 286.478 104.383 289.761 173.508 338.981C242.509 388.862 302.835 484.68 374.04 522.884C445.329 560.647 527.706 539.695 568.895 529.219L610.083 518.742L576.798 695L538.938 687.851C501.079 680.701 425.359 666.402 349.639 652.103C273.919 637.804 198.199 623.505 122.479 609.206C46.7592 594.907 -28.9607 580.608 -104.681 566.309C-180.401 552.01 -256.12 537.711 -331.84 523.412C-407.56 509.113 -483.28 494.815 -521.14 487.665L-559 480.516Z" fill="#8A3FFC"/>
</g>
<path d="M111.585 385H21.285V236.435H42.57V366.295H90.3V347.805L111.585 326.735V385ZM230.658 385H209.588V369.09L193.678 385H156.483L137.778 366.295V236.435H159.063V366.295H209.588V236.435H230.658V385ZM603.549 385H582.479V329.315H531.954V385H510.669V255.14L529.374 236.435H603.549V385ZM595.809 255.14H531.954V326.735L548.079 310.61H582.479V268.47L595.809 255.14Z" fill="white"/>
<path d="M360.958 366.295L342.253 385H289.148L270.658 366.295V255.14L289.148 236.435H342.253L360.958 255.14V270.62L339.673 292.12V255.14H291.943V366.295H339.673V350.6L360.958 329.315V366.295ZM480.426 255.14H407.326V292.12H456.561L474.836 310.61V366.295L456.561 385H404.531L386.041 366.295V351.46L407.326 331.035V366.295H453.551V310.61H404.531L386.041 292.12V255.14L404.531 236.435H461.721L480.426 255.14Z" fill="#CC00FF"/>
</g>
<defs>
<clipPath id="clip0_50_2">
<rect width="630" height="630" rx="315" fill="white"/>
</clipPath>
<clipPath id="clip1_50_2">
<rect width="1155.87" height="358.746" fill="white" transform="translate(-492.431 128) rotate(10.6938)"/>
</clipPath>
</defs>
</svg>
