<svg width="253" height="65" viewBox="0 0 253 65" fill="none" xmlns="http://www.w3.org/2000/svg">
<path d="M39.267 65H0.207001V0.736996H9.414V56.909H30.06V48.911L39.267 39.797V65ZM90.773 65H81.659V58.118L74.777 65H58.688L50.597 56.909V0.736996H59.804V56.909H81.659V0.736996H90.773V65ZM147.135 56.909L139.044 65H116.073L108.075 56.909V8.828L116.073 0.736996H139.044L147.135 8.828V15.524L137.928 24.824V8.828H117.282V56.909H137.928V50.12L147.135 40.913V56.909ZM198.812 8.828H167.192V24.824H188.489L196.394 32.822V56.909L188.489 65H165.983L157.985 56.909V50.492L167.192 41.657V56.909H187.187V32.822H165.983L157.985 24.824V8.828L165.983 0.736996H190.721L198.812 8.828ZM252.07 65H242.956V40.913H221.101V65H211.894V8.828L219.985 0.736996H252.07V65ZM248.722 8.828H221.101V39.797L228.076 32.822H242.956V14.594L248.722 8.828Z" fill="#D11AFF"/>
</svg>
