<svg width="612" height="618" viewBox="0 0 612 618" fill="none" xmlns="http://www.w3.org/2000/svg">
<path d="M521.363 227.857C526.34 227.074 531.318 226.312 536.296 225.57C534.092 233.666 531.828 241.885 527.483 248.992C523.076 256.099 516.222 262.094 507.96 263.392C512.04 263.721 516.12 264.071 520.2 264.442C516.222 300.842 501.473 337.984 483.113 369.564L487.948 281.561C493.517 264.504 499.147 247.324 507.838 231.626C516.589 215.991 528.707 201.777 544.496 193.496C541.559 207.339 533.052 219.946 521.363 227.857Z" fill="#E0E0E0"/>
<path d="M480.359 390.205C480.359 390.205 440.456 342.001 440.885 295.96H457.042C457.042 295.96 439.538 284.342 440.885 277.791C442.292 271.302 442.721 246.644 442.721 246.644L457.47 250.352C457.47 250.352 446.454 244.79 445.046 235.952C443.7 227.115 448.29 186.203 448.29 186.203C448.29 186.203 466.222 205.238 471.791 224.767C477.299 244.295 491.803 267.1 487.58 326.613C483.296 386.126 480.359 390.205 480.359 390.205Z" fill="#EBEBEB"/>
<path d="M509.306 342.928C518.792 294.106 535.378 279.027 544.068 264.566C552.758 250.043 571.302 238.672 571.302 238.672C571.302 238.672 566.161 272.6 563.101 279.398C560.102 286.196 550.004 288.235 550.004 288.235L562.673 288.544C562.673 288.544 557.716 308.444 557.41 314.006C557.104 319.506 540.518 325.006 540.518 325.006L553.432 328.529C543.823 365.671 500.616 394.778 500.616 394.778C500.616 394.778 499.82 391.75 509.306 342.928Z" fill="#EBEBEB"/>
<path d="M459.184 228.227C459.184 228.227 459.224 228.392 459.306 228.722C459.388 229.093 459.51 229.587 459.673 230.205C459.979 231.565 460.408 233.48 460.897 235.952C461.448 238.424 462.121 241.514 462.794 245.037C463.529 248.56 464.324 252.638 465.12 257.088C466.834 266.049 468.67 276.74 470.506 288.606C472.28 300.533 474.116 313.635 475.708 327.416C477.238 341.26 478.462 354.423 479.441 366.412C480.298 378.401 480.971 389.278 481.338 398.363C481.583 402.874 481.644 407.015 481.766 410.661C481.889 414.245 481.95 417.335 482.011 419.931C482.011 422.403 482.072 424.381 482.072 425.74C482.072 426.399 482.072 426.914 482.072 427.285C482.072 427.615 482.072 427.8 482.072 427.841C482.032 427.8 482.011 427.615 482.011 427.285C481.97 426.914 481.95 426.399 481.95 425.74C481.889 424.381 481.828 422.403 481.766 419.931C481.705 417.397 481.583 414.245 481.399 410.661C481.277 407.015 481.154 402.936 480.848 398.363C480.481 389.278 479.747 378.463 478.829 366.474C477.85 354.485 476.626 341.321 475.034 327.478C473.443 313.697 471.668 300.595 469.894 288.73C468.119 276.802 466.344 266.111 464.692 257.15C463.896 252.7 463.1 248.683 462.427 245.099C461.815 241.576 461.203 238.486 460.652 236.014C460.163 233.542 459.796 231.626 459.551 230.267C459.428 229.608 459.326 229.113 459.245 228.784C459.204 228.413 459.184 228.227 459.184 228.227Z" fill="#E0E0E0"/>
<path d="M474.851 419.746C474.851 419.746 438.314 377.907 426.931 352.631L435.499 348.923C429.318 349.973 422.953 347.254 418.118 343.175C413.345 339.097 409.795 333.72 406.307 328.405L417.629 326.489C407.347 323.585 398.29 316.478 392.965 307.208C406.246 309.433 418.302 316.787 428.216 325.995C436.295 333.473 443.088 342.187 449.636 351.024C452.819 355.35 455.573 359.923 457.898 364.805C464.08 377.598 474.851 404.357 474.851 419.746Z" fill="#EBEBEB"/>
<path d="M554.044 263.021C554.044 263.062 553.982 263.206 553.86 263.453C553.738 263.783 553.554 264.195 553.309 264.689C552.779 265.802 552.024 267.347 551.045 269.324C550.066 271.302 548.903 273.774 547.556 276.679C546.21 279.521 544.619 282.797 542.966 286.443C539.6 293.674 535.684 302.326 531.522 312.09C527.422 321.793 523.015 332.546 518.609 343.917C514.264 355.35 510.347 366.289 506.92 376.3C503.554 386.312 500.616 395.335 498.29 402.998C497.066 406.829 496.087 410.29 495.169 413.318C494.251 416.347 493.517 419.004 492.905 421.167C492.293 423.268 491.803 424.916 491.436 426.111C491.273 426.647 491.15 427.079 491.069 427.409C490.987 427.697 490.926 427.841 490.885 427.841C490.885 427.8 490.926 427.635 491.008 427.347C491.089 427.017 491.191 426.585 491.314 426.049C491.64 424.896 492.089 423.248 492.66 421.105C493.211 418.942 493.945 416.285 494.863 413.257C495.72 410.167 496.699 406.706 497.862 402.874C500.126 395.211 503.003 386.126 506.369 376.053C509.796 366.041 513.652 355.103 518.058 343.67C522.403 332.299 526.81 321.545 530.971 311.843C535.194 302.14 539.111 293.426 542.538 286.258C544.252 282.611 545.843 279.336 547.189 276.493C548.597 273.65 549.821 271.178 550.861 269.201C551.84 267.223 552.616 265.699 553.187 264.628C553.432 264.133 553.636 263.742 553.799 263.453C553.962 263.165 554.044 263.021 554.044 263.021Z" fill="#E0E0E0"/>
<path d="M477.911 437.668C477.911 437.668 477.87 437.4 477.788 436.864C477.666 436.287 477.544 435.546 477.421 434.639C477.299 433.712 477.115 432.538 476.87 431.179C476.626 429.757 476.381 428.212 476.014 426.544C475.34 423.083 474.422 419.066 473.26 414.616C471.974 410.167 470.506 405.346 468.608 400.34C466.772 395.396 464.753 390.7 462.733 386.559C460.714 382.418 458.755 378.772 457.042 375.744C456.185 374.261 455.328 372.901 454.655 371.727C453.92 370.553 453.308 369.564 452.758 368.699C452.268 367.957 451.86 367.339 451.534 366.845C451.289 366.392 451.166 366.165 451.166 366.165C451.207 366.124 451.37 366.33 451.656 366.783C451.982 367.236 452.411 367.834 452.941 368.575C453.492 369.379 454.165 370.367 454.9 371.542C455.695 372.716 456.552 374.014 457.409 375.559C459.245 378.525 461.203 382.171 463.284 386.312C465.304 390.452 467.323 395.149 469.22 400.093C471.056 405.099 472.586 409.981 473.81 414.431C474.973 418.942 475.83 422.959 476.442 426.42C476.809 428.15 476.993 429.695 477.176 431.117C477.421 432.476 477.544 433.651 477.666 434.639C477.748 435.546 477.829 436.287 477.911 436.864C477.952 437.4 477.952 437.668 477.911 437.668Z" fill="#E0E0E0"/>
<path d="M526.136 444.28H446.148V427.841H526.136V444.28Z" fill="#E0E0E0"/>
<path d="M518.792 444.28L510.775 499.653H462.427L453.798 444.28H518.792Z" fill="#E0E0E0"/>
<path d="M521.24 444.28C521.24 444.466 506.124 444.589 487.458 444.589C468.792 444.589 453.676 444.466 453.676 444.28C453.676 444.095 468.792 443.971 487.458 443.971C506.124 443.971 521.24 444.095 521.24 444.28Z" fill="#EBEBEB"/>
<path d="M116.464 339.158L76.2552 499.591H65.8512L105.203 339.158H116.464Z" fill="#F5F5F5"/>
<path d="M179.194 339.158L215.975 499.591H205.632L167.872 339.158H179.194Z" fill="#F5F5F5"/>
<path d="M148.471 497.243H136.415L134.64 313.079H146.696L148.471 497.243Z" fill="#F5F5F5"/>
<path d="M225.644 314.871H55.692V204.929H225.644V314.871Z" fill="#EBEBEB"/>
<path d="M183.355 348.119H98.0424V337.49H183.355V348.119Z" fill="#F5F5F5"/>
<path d="M67.014 300.533C67.014 300.533 67.0752 301.151 67.1364 302.511H66.8916C66.708 297.134 66.5856 279.336 66.5856 258.262C66.6468 245.531 66.6468 233.975 66.708 225.508C66.7692 221.368 66.7692 218.03 66.8304 215.558C66.8712 214.487 66.8916 213.581 66.8916 212.839C66.9324 212.221 66.9732 211.912 67.014 211.912C67.014 211.912 67.0344 212.221 67.0752 212.839C67.116 213.581 67.1364 214.487 67.1364 215.558C67.1976 218.03 67.2588 221.368 67.32 225.508C67.32 233.975 67.3812 245.531 67.4424 258.262C67.4424 279.336 67.2588 297.134 67.1364 302.511H66.8916C66.8916 301.151 66.9528 300.533 67.014 300.533Z" fill="#F5F5F5"/>
<path d="M79.6212 300.533C79.6824 300.533 79.7436 301.151 79.7436 302.511H79.4988C79.3764 297.134 79.1928 279.336 79.1928 258.262C79.254 245.531 79.3152 233.975 79.3152 225.508C79.3764 221.368 79.4376 218.03 79.4988 215.558C79.4988 214.487 79.5192 213.581 79.56 212.839C79.6008 212.221 79.6212 211.912 79.6212 211.912C79.662 211.912 79.7028 212.221 79.7436 212.839C79.7436 213.581 79.764 214.487 79.8048 215.558C79.866 218.03 79.866 221.368 79.9272 225.508C79.9884 233.975 79.9884 245.531 80.0496 258.262C80.0496 279.336 79.9272 297.134 79.7436 302.511H79.4988C79.56 301.151 79.6212 300.533 79.6212 300.533Z" fill="#F5F5F5"/>
<path d="M92.2896 300.533C92.3508 300.533 92.3508 301.151 92.412 302.511H92.1672C91.9836 297.134 91.8612 279.336 91.8612 258.262C91.9224 245.531 91.9836 233.975 91.9836 225.508C92.0448 221.368 92.106 218.03 92.106 215.558C92.1468 214.487 92.1876 213.581 92.2284 212.839C92.2284 212.221 92.2488 211.912 92.2896 211.912C92.3304 211.912 92.3508 212.221 92.3508 212.839C92.3916 213.581 92.4324 214.487 92.4732 215.558C92.4732 218.03 92.5344 221.368 92.5956 225.508C92.5956 233.975 92.6568 245.531 92.718 258.262C92.718 279.336 92.5956 297.134 92.412 302.511H92.1672C92.2284 301.151 92.2284 300.533 92.2896 300.533Z" fill="#F5F5F5"/>
<path d="M104.958 300.533C104.958 300.533 105.019 301.151 105.08 302.511H104.836C104.652 297.134 104.53 279.336 104.53 258.262C104.591 245.531 104.591 233.975 104.652 225.508C104.713 221.368 104.713 218.03 104.774 215.558C104.815 214.487 104.836 213.581 104.836 212.839C104.876 212.221 104.917 211.912 104.958 211.912C104.958 211.912 104.978 212.221 105.019 212.839C105.06 213.581 105.08 214.487 105.08 215.558C105.142 218.03 105.203 221.368 105.203 225.508C105.264 233.975 105.325 245.531 105.325 258.262C105.325 279.336 105.203 297.134 105.08 302.511H104.836C104.836 301.151 104.897 300.533 104.958 300.533Z" fill="#F5F5F5"/>
<path d="M117.565 300.533C117.626 300.533 117.688 301.151 117.688 302.511H117.443C117.32 297.134 117.137 279.336 117.137 258.262C117.198 245.531 117.259 233.975 117.259 225.508C117.32 221.368 117.382 218.03 117.443 215.558C117.443 214.487 117.463 213.581 117.504 212.839C117.545 212.221 117.565 211.912 117.565 211.912C117.606 211.912 117.647 212.221 117.688 212.839C117.688 213.581 117.708 214.487 117.749 215.558C117.749 218.03 117.81 221.368 117.871 225.508C117.932 233.975 117.932 245.531 117.994 258.262C117.994 279.336 117.871 297.134 117.688 302.511H117.443C117.504 301.151 117.565 300.533 117.565 300.533Z" fill="#F5F5F5"/>
<path d="M130.234 300.533C130.295 300.533 130.295 301.151 130.356 302.511H130.111C129.928 297.134 129.805 279.336 129.805 258.262C129.866 245.531 129.928 233.975 129.928 225.508C129.989 221.368 130.05 218.03 130.05 215.558C130.091 214.487 130.132 213.581 130.172 212.839C130.172 212.221 130.193 211.912 130.234 211.912C130.274 211.912 130.295 212.221 130.295 212.839C130.336 213.581 130.376 214.487 130.417 215.558C130.417 218.03 130.478 221.368 130.54 225.508C130.54 233.975 130.601 245.531 130.662 258.262C130.662 279.336 130.54 297.134 130.356 302.511H130.111C130.172 301.151 130.172 300.533 130.234 300.533Z" fill="#F5F5F5"/>
<path d="M142.902 300.533C142.902 300.533 142.963 301.151 142.963 302.511H142.78C142.596 297.134 142.474 279.336 142.474 258.262C142.535 245.531 142.535 233.975 142.596 225.508C142.657 221.368 142.657 218.03 142.718 215.558C142.759 214.487 142.78 213.581 142.78 212.839C142.82 212.221 142.861 211.912 142.902 211.912C142.902 211.912 142.922 212.221 142.963 212.839C142.963 213.581 142.984 214.487 143.024 215.558C143.086 218.03 143.147 221.368 143.147 225.508C143.208 233.975 143.269 245.531 143.269 258.262C143.269 279.336 143.147 297.134 142.963 302.511H142.78C142.78 301.151 142.841 300.533 142.902 300.533Z" fill="#F5F5F5"/>
<path d="M155.509 300.533C155.57 300.533 155.632 301.151 155.632 302.511H155.387C155.203 297.134 155.081 279.336 155.081 258.262C155.142 245.531 155.203 233.975 155.203 225.508C155.264 221.368 155.326 218.03 155.387 215.558C155.387 214.487 155.407 213.581 155.448 212.839C155.489 212.221 155.509 211.912 155.509 211.912C155.55 211.912 155.591 212.221 155.632 212.839C155.632 213.581 155.652 214.487 155.693 215.558C155.693 218.03 155.754 221.368 155.815 225.508C155.876 233.975 155.876 245.531 155.938 258.262C155.938 279.336 155.815 297.134 155.632 302.511H155.387C155.448 301.151 155.509 300.533 155.509 300.533Z" fill="#F5F5F5"/>
<path d="M168.178 300.533C168.239 300.533 168.239 301.151 168.3 302.511H168.055C167.872 297.134 167.749 279.336 167.749 258.262C167.81 245.531 167.872 233.975 167.872 225.508C167.933 221.368 167.994 218.03 167.994 215.558C168.035 214.487 168.055 213.581 168.055 212.839C168.096 212.221 168.137 211.912 168.178 211.912C168.218 211.912 168.239 212.221 168.239 212.839C168.28 213.581 168.32 214.487 168.361 215.558C168.361 218.03 168.422 221.368 168.484 225.508C168.484 233.975 168.545 245.531 168.606 258.262C168.606 279.336 168.484 297.134 168.3 302.511H168.055C168.116 301.151 168.116 300.533 168.178 300.533Z" fill="#F5F5F5"/>
<path d="M180.846 300.533C180.846 300.533 180.907 301.151 180.907 302.511H180.724C180.54 297.134 180.418 279.336 180.418 258.262C180.418 245.531 180.479 233.975 180.54 225.508C180.601 221.368 180.601 218.03 180.662 215.558C180.703 214.487 180.724 213.581 180.724 212.839C180.764 212.221 180.805 211.912 180.846 211.912C180.846 211.912 180.866 212.221 180.907 212.839C180.907 213.581 180.928 214.487 180.968 215.558C181.03 218.03 181.03 221.368 181.091 225.508C181.152 233.975 181.213 245.531 181.213 258.262C181.213 279.336 181.091 297.134 180.907 302.511H180.724C180.724 301.151 180.785 300.533 180.846 300.533Z" fill="#F5F5F5"/>
<path d="M193.453 300.533C193.514 300.533 193.514 301.151 193.576 302.511H193.331C193.147 297.134 193.025 279.336 193.025 258.262C193.086 245.531 193.147 233.975 193.147 225.508C193.208 221.368 193.27 218.03 193.331 215.558C193.331 214.487 193.351 213.581 193.392 212.839C193.392 212.221 193.412 211.912 193.453 211.912C193.494 211.912 193.535 212.221 193.576 212.839C193.576 213.581 193.596 214.487 193.637 215.558C193.637 218.03 193.698 221.368 193.759 225.508C193.82 233.975 193.82 245.531 193.882 258.262C193.882 279.336 193.759 297.134 193.576 302.511H193.331C193.392 301.151 193.453 300.533 193.453 300.533Z" fill="#F5F5F5"/>
<path d="M206.122 300.533C206.122 300.533 206.183 301.151 206.244 302.511H205.999C205.816 297.134 205.693 279.336 205.693 258.262C205.754 245.531 205.754 233.975 205.816 225.508C205.877 221.368 205.938 218.03 205.938 215.558C205.979 214.487 205.999 213.581 205.999 212.839C206.04 212.221 206.081 211.912 206.122 211.912C206.162 211.912 206.183 212.221 206.183 212.839C206.224 213.581 206.244 214.487 206.244 215.558C206.305 218.03 206.366 221.368 206.428 225.508C206.428 233.975 206.489 245.531 206.55 258.262C206.55 279.336 206.428 297.134 206.244 302.511H205.999C206.06 301.151 206.06 300.533 206.122 300.533Z" fill="#F5F5F5"/>
<path d="M218.729 300.533C218.79 300.533 218.851 301.151 218.851 302.511H218.668C218.484 297.134 218.362 279.336 218.362 258.262C218.362 245.531 218.423 233.975 218.484 225.508C218.545 221.368 218.545 218.03 218.606 215.558C218.647 214.487 218.668 213.581 218.668 212.839C218.708 212.221 218.729 211.912 218.729 211.912C218.77 211.912 218.81 212.221 218.851 212.839C218.851 213.581 218.872 214.487 218.912 215.558C218.974 218.03 218.974 221.368 219.035 225.508C219.096 233.975 219.157 245.531 219.157 258.262C219.157 279.336 219.035 297.134 218.851 302.511H218.668C218.668 301.151 218.729 300.533 218.729 300.533Z" fill="#F5F5F5"/>
<path d="M347.249 126.381L337.702 213.148C336.049 227.918 330.725 249.239 307.714 245.593C288.007 240.896 285.07 221.182 286.6 207.401C287.334 200.85 287.885 195.412 287.946 194.732C287.946 194.732 266.281 190.22 267.138 168.158C267.505 157.528 270.076 135.651 272.646 115.875C275.4 94.6776 293.882 79.1658 315.058 80.2782L317.138 80.34C339.782 82.8738 350.309 103.639 347.249 126.381Z" fill="#936760"/>
<path d="M287.946 194.732C287.946 194.732 301.655 196.277 316.771 187.687C316.771 187.687 308.999 203.446 287.334 200.356L287.946 194.732Z" fill="#6F4C47"/>
<path d="M309.978 127.679C311.141 126.875 313.099 126.196 315.364 126.381C317.628 126.628 319.525 127.617 320.566 128.606C321.667 129.595 322.034 130.46 321.79 130.645C321.361 131.078 318.852 128.853 315.241 128.606C311.63 128.235 308.876 129.965 308.509 129.471C308.326 129.224 308.754 128.42 309.978 127.679Z" fill="#263238"/>
<path d="M310.835 134.477C312.487 134.662 313.65 136.084 313.528 137.629C313.405 139.174 311.998 140.348 310.345 140.162C308.754 139.977 307.53 138.556 307.652 137.011C307.836 135.466 309.244 134.291 310.835 134.477Z" fill="#263238"/>
<path d="M290.822 153.449C290.394 153.388 289.904 153.388 289.354 153.14C288.803 153.017 288.191 152.461 288.007 151.843C287.64 150.483 288.252 149.432 288.619 148.444C289.517 146.384 290.435 144.221 291.373 141.955C295.351 132.746 298.901 125.454 299.268 125.639C299.635 125.763 296.698 133.364 292.72 142.511C291.7 144.777 290.741 146.94 289.843 149C289.415 149.989 288.986 150.854 289.17 151.534C289.292 152.09 290.088 152.337 290.945 152.461C294.311 153.079 296.33 153.511 296.33 153.758C296.269 153.944 294.188 153.82 290.822 153.449Z" fill="#263238"/>
<path d="M313.589 114.392C314.874 113.897 316.771 113.65 318.852 114.021C320.933 114.392 322.708 115.257 323.748 116.122C324.85 116.987 325.339 117.791 325.094 118.162C324.605 118.841 321.851 117.667 318.362 117.111C314.935 116.493 311.998 116.74 311.692 115.875C311.63 115.504 312.304 114.886 313.589 114.392Z" fill="#263238"/>
<path d="M279.439 114.515C280.724 114.021 282.56 113.712 284.641 113.897C286.722 114.083 288.497 114.701 289.598 115.381C290.7 116.06 291.19 116.678 291.006 116.987C290.578 117.667 287.824 116.802 284.335 116.555C280.908 116.246 278.032 116.617 277.726 115.875C277.603 115.566 278.215 115.01 279.439 114.515Z" fill="#263238"/>
<path d="M344.617 142.634C345.046 142.449 359.856 138.926 358.632 153.944C357.408 168.961 342.72 164.635 342.72 164.203C342.72 163.77 344.617 142.634 344.617 142.634Z" fill="#936760"/>
<path d="M347.738 158.888C347.8 158.826 347.983 159.073 348.412 159.32C348.84 159.568 349.513 159.753 350.309 159.506C351.961 159.073 353.491 156.663 353.797 153.944C353.92 152.584 353.736 151.286 353.369 150.174C353.002 149 352.328 148.196 351.594 147.949C350.798 147.702 350.186 148.135 350.003 148.567C349.758 148.938 349.819 149.247 349.758 149.309C349.697 149.309 349.452 149 349.636 148.382C349.697 148.135 349.88 147.764 350.248 147.517C350.676 147.269 351.166 147.146 351.716 147.269C352.879 147.455 353.797 148.567 354.226 149.803C354.776 151.039 354.96 152.522 354.838 154.067C354.47 157.096 352.696 159.815 350.492 160.247C349.452 160.433 348.595 160.062 348.167 159.629C347.738 159.259 347.677 158.888 347.738 158.888Z" fill="#6F4C47"/>
<path d="M298.534 164.512C298.411 164.141 301.471 163.585 303.797 161.113C305.021 159.877 305.755 158.455 306.367 157.466C306.918 156.416 307.346 155.798 307.469 155.86C307.591 155.921 307.469 156.663 307.102 157.837C306.734 158.95 306 160.556 304.654 161.916C303.368 163.337 301.716 164.079 300.553 164.388C299.329 164.697 298.595 164.635 298.534 164.512Z" fill="#263238"/>
<path d="M278.093 122.92C279.256 122.117 281.275 121.437 283.54 121.684C285.804 121.87 287.64 122.92 288.742 123.847C289.782 124.836 290.149 125.701 289.904 125.887C289.476 126.319 287.028 124.156 283.356 123.847C279.745 123.476 276.991 125.207 276.624 124.712C276.44 124.465 276.93 123.724 278.093 122.92Z" fill="#263238"/>
<path d="M279.562 130.583C281.153 130.769 282.377 132.128 282.254 133.735C282.132 135.28 280.663 136.454 279.072 136.269C277.481 136.084 276.257 134.662 276.379 133.117C276.502 131.51 277.909 130.398 279.562 130.583Z" fill="#263238"/>
<path d="M356.429 129.162C355.327 133.364 352.696 142.943 349.024 142.078C341.618 140.41 342.108 152.275 338.558 150.854C335.07 149.494 334.152 140.039 334.58 136.269C335.804 124.465 340.272 115.999 335.315 102.588C332.132 97.2114 326.502 93.627 320.321 93.627C314.14 93.627 308.203 96.9642 304.96 102.341C304.225 98.2002 302.083 92.0202 298.411 90.1044C294.678 88.1886 289.843 88.5594 286.783 91.3404C283.723 94.1832 282.989 99.3744 285.498 102.712C283.846 103.268 281.826 102.588 280.847 101.105C280.786 103.082 281.459 104.998 282.805 106.42C281.336 106.049 279.929 105.122 279.072 103.886C279.439 105.575 279.827 107.264 280.235 108.953C274.115 109.262 267.934 103.391 266.098 98.0766C263.282 89.9808 265.118 81.7614 269.464 74.4072C273.809 67.053 281.704 61.7382 290.21 61.6146C298.656 61.491 305.878 65.3844 309.305 73.233C314.69 69.1542 325.829 67.5474 332.01 70.2048C338.191 72.8622 342.781 79.0422 343.638 85.7784C347.432 84.048 352.022 85.2222 355.327 87.756C355.613 88.0032 355.878 88.2298 356.123 88.4358C360.652 92.4528 362.61 98.6946 361.631 104.751C361.202 107.099 360.468 109.571 360.04 111.487C358.754 117.173 356.429 129.162 356.429 129.162Z" fill="#263238"/>
<path d="M279.929 100.796C279.888 100.796 279.704 100.652 279.378 100.363C279.072 100.116 278.644 99.6834 278.154 99.0654C277.175 97.8912 276.012 95.79 275.584 92.9472C275.155 90.1662 275.767 86.4582 278.276 83.5536C280.663 80.649 284.764 78.5478 289.17 79.104C291.312 79.3512 293.332 80.1546 295.045 81.267C296.759 82.3794 298.228 83.739 299.452 85.1604C301.9 88.0032 303.307 91.155 304.042 93.8742C304.837 96.5934 304.96 98.88 304.96 100.487C304.919 101.27 304.858 101.867 304.776 102.279C304.735 102.691 304.715 102.897 304.715 102.897C304.531 102.897 305.204 99.3744 303.613 93.9978C302.818 91.3404 301.41 88.3122 299.023 85.5312C296.636 82.812 293.209 80.2782 289.109 79.722C284.947 79.2276 281.03 81.2052 278.705 83.9244C276.318 86.7054 275.706 90.1662 276.073 92.8854C276.379 95.6046 277.42 97.7058 278.338 98.9418C279.256 100.178 279.929 100.734 279.929 100.796Z" fill="#455A64"/>
<path d="M277.236 107.347C277.195 107.347 277.032 107.12 276.746 106.667C276.461 106.172 276.073 105.472 275.584 104.566C274.604 102.773 273.136 100.116 272.034 96.5316C271.483 94.7394 270.994 92.7618 270.932 90.537C270.871 88.3122 271.116 85.902 272.034 83.5536C272.952 81.267 274.604 79.104 276.808 77.4972C279.072 75.9522 281.765 74.9634 284.58 74.7162C287.456 74.469 290.272 74.9634 292.781 75.8286C295.29 76.7556 297.554 78.0534 299.574 79.5366C303.491 82.503 306.122 86.3964 307.102 90.0426C308.081 93.6888 307.591 96.8406 306.857 98.8182C306.49 99.807 306.122 100.487 305.816 100.981C305.531 101.434 305.368 101.661 305.327 101.661C305.266 101.599 306 100.672 306.612 98.6946C307.224 96.7788 307.652 93.6888 306.673 90.1662C305.694 86.6436 303.062 82.8738 299.207 80.031C295.351 77.1882 290.21 74.9016 284.641 75.3342C281.948 75.5814 279.317 76.5702 277.175 78.0534C275.033 79.5366 273.442 81.576 272.585 83.8008C271.667 86.0256 271.422 88.374 271.483 90.4752C271.544 92.6382 271.912 94.6158 272.462 96.408C273.503 99.9306 274.91 102.588 275.828 104.442C276.277 105.348 276.624 106.069 276.869 106.605C277.114 107.099 277.236 107.347 277.236 107.347Z" fill="#455A64"/>
<path d="M351.104 119.892C351.043 119.768 352.39 118.78 354.103 116.617C355.817 114.515 357.775 111.116 358.51 106.976C359.244 102.897 358.632 99.0654 357.775 96.4698C356.918 93.8124 356 92.391 356.123 92.3292C356.123 92.3292 356.429 92.6382 356.796 93.318C357.224 93.9978 357.714 94.9866 358.204 96.2844C359.183 98.88 359.917 102.897 359.122 107.099C358.326 111.364 356.306 114.824 354.47 116.926C353.552 117.976 352.696 118.718 352.084 119.212C351.472 119.707 351.104 119.892 351.104 119.892Z" fill="#455A64"/>
<path d="M337.946 119.768C337.946 119.707 338.681 119.398 339.782 118.594C340.884 117.791 342.414 116.369 343.332 114.083L343.883 112.723L343.822 114.206C343.699 116.246 343.516 118.656 343.332 121.19L342.904 120.943C344.556 119.707 346.147 118.1 347.494 116.184C349.146 113.712 350.125 110.993 350.554 108.397C350.921 105.863 350.737 103.515 350.309 101.599C349.513 97.7058 348.044 95.6664 348.167 95.6046C348.167 95.6046 348.248 95.7282 348.412 95.9754C348.616 96.2226 348.84 96.5728 349.085 97.026C349.636 98.0148 350.309 99.498 350.737 101.476C351.227 103.453 351.472 105.863 351.104 108.521C350.737 111.116 349.758 113.959 347.983 116.493C346.637 118.532 344.984 120.201 343.21 121.437L342.72 121.808V121.128C342.965 118.594 343.148 116.246 343.332 114.206L343.822 114.268C342.781 116.678 341.129 118.1 339.966 118.841C339.354 119.212 338.864 119.459 338.497 119.583C338.171 119.707 337.987 119.768 337.946 119.768Z" fill="#455A64"/>
<path d="M333.295 89.1774C333.173 89.301 332.5 87.138 329.807 85.0986C328.522 84.1098 326.747 83.121 324.605 82.7502C322.463 82.3794 320.015 82.6266 317.689 83.5536C315.364 84.4806 313.344 86.0256 311.936 87.6942C310.529 89.301 309.55 91.0932 308.938 92.6382C307.714 95.79 307.591 97.953 307.469 97.8912C307.469 97.8912 307.408 97.3968 307.53 96.408C307.652 95.481 307.958 94.1214 308.509 92.5146C309.121 90.9078 310.039 89.0538 311.508 87.2616C312.977 85.5312 314.996 83.9244 317.444 82.9356C319.892 82.0086 322.463 81.7614 324.727 82.194C326.93 82.6266 328.766 83.6154 330.113 84.7278C331.459 85.8402 332.255 87.0144 332.683 87.8178C332.928 88.271 333.091 88.6006 333.173 88.8066C333.254 89.0538 333.295 89.1774 333.295 89.1774Z" fill="#455A64"/>
<path d="M329.623 78.177C329.562 78.3006 328.216 77.25 325.645 76.6938C323.075 76.1376 319.28 76.323 315.792 78.3624C312.304 80.4018 310.1 83.5536 308.938 85.902C307.714 88.2504 307.346 89.919 307.285 89.8572C307.224 89.8572 307.285 89.4246 307.469 88.683C307.652 88.0032 307.958 86.9526 308.509 85.6548C309.611 83.2446 311.814 79.9074 315.425 77.8062C319.097 75.705 323.136 75.5814 325.706 76.2612C327.053 76.632 328.032 77.0646 328.705 77.4972C329.317 77.868 329.684 78.177 329.623 78.177Z" fill="#455A64"/>
<path d="M241.434 420.549L378.216 422.403C378.216 422.403 416.466 406.211 426.992 405.779C437.519 405.346 458.388 406.706 467.996 422.403C477.972 438.595 479.38 467.208 448.657 487.973C418.73 508.243 281.826 526.969 263.099 525.238L228.46 478.332C228.46 478.332 228.154 439.892 228.46 438.1C228.827 436.246 234.641 419.807 234.641 419.807L241.434 420.549Z" fill="#263238"/>
<path d="M322.096 485.377L392.965 511.951L360.713 601.19C352.451 597.544 352.206 545.138 352.206 545.138L306.122 529.997L322.096 485.377Z" fill="#8D14BF"/>
<g opacity="0.6">
<path d="M359.611 516.154C360.652 514.609 363.038 514.114 364.63 515.165C366.221 516.154 366.71 518.564 365.67 520.171C364.568 521.716 361.753 522.395 360.284 521.221C358.877 519.985 358.387 517.142 359.795 515.845" fill="white"/>
</g>
<path d="M361.937 601.19C358.999 600.634 358.693 595.999 358.693 595.999L387.029 509.294L394.189 511.951L361.937 601.19Z" fill="#263238"/>
<path d="M355.082 541.553C357.653 539.514 360.468 539.823 360.407 540.256C360.407 540.75 358.142 541.121 356.062 542.851C353.858 544.458 352.879 546.559 352.451 546.436C352.022 546.374 352.451 543.531 355.082 541.553Z" fill="#263238"/>
<path d="M356.551 553.481C359.428 552.43 361.876 553.666 361.631 554.037C361.508 554.47 359.366 554.161 357.041 555.026C354.715 555.829 353.308 557.436 352.879 557.189C352.512 557.003 353.614 554.531 356.551 553.481Z" fill="#263238"/>
<path d="M357.714 566.706C355.45 566.83 353.736 567.695 353.43 567.324C353.124 567.015 354.838 565.285 357.592 565.099C360.346 564.852 362.304 566.212 362.059 566.582C361.876 567.015 359.978 566.459 357.714 566.706Z" fill="#263238"/>
<path d="M342.475 536.486C343.699 533.643 345.964 532.345 346.208 532.716C346.514 533.087 344.984 534.694 343.944 537.104C342.904 539.514 342.781 541.739 342.353 541.801C341.924 541.862 341.251 539.329 342.475 536.486Z" fill="#263238"/>
<path d="M333.112 531.171C333.173 529.75 333.234 528.081 332.989 526.227C332.908 525.321 332.765 524.373 332.561 523.384C332.438 522.89 332.316 522.395 332.132 522.148C331.949 521.839 331.888 521.777 331.643 521.839C331.153 521.901 330.908 522.704 330.786 523.755C330.664 524.744 330.623 525.691 330.664 526.598C330.725 528.452 331.031 530.12 331.398 531.418C332.194 534.137 333.234 535.621 332.989 535.744C332.867 535.868 331.52 534.57 330.358 531.789C329.807 530.429 329.317 528.699 329.195 526.721C329.072 525.733 329.134 524.682 329.256 523.57C329.317 523.075 329.378 522.457 329.623 521.839C329.868 521.159 330.419 520.48 331.276 520.294C332.194 519.985 333.234 520.665 333.479 521.345C333.846 521.963 333.968 522.519 334.091 523.075C334.295 524.105 334.417 525.115 334.458 526.103C334.58 528.081 334.458 529.873 334.213 531.295C333.662 534.261 332.806 535.868 332.622 535.806C332.377 535.682 332.867 534.014 333.112 531.171Z" fill="#263238"/>
<path d="M329.195 533.767C327.91 533.334 326.257 533.025 324.482 533.025C323.585 532.984 322.646 533.046 321.667 533.21C320.81 533.334 319.831 533.828 319.648 534.261C319.464 534.57 320.076 535.188 320.933 535.682C321.79 536.177 322.646 536.486 323.503 536.733C325.156 537.166 326.808 537.104 328.154 536.857C330.847 536.3 332.194 535.126 332.377 535.312C332.5 535.435 331.337 537.042 328.399 537.969C326.992 538.402 325.156 538.587 323.136 538.154C322.157 537.969 321.178 537.598 320.198 537.042C319.709 536.795 319.219 536.548 318.73 535.991C318.24 535.559 317.812 534.57 318.179 533.705C318.974 532.098 320.382 531.851 321.422 531.665C322.524 531.48 323.564 531.48 324.544 531.542C326.502 531.604 328.216 532.098 329.562 532.716C332.316 533.89 333.54 535.312 333.418 535.435C333.295 535.682 331.826 534.632 329.195 533.767Z" fill="#263238"/>
<path d="M284.458 517.822L239.72 536.548C239.72 536.548 243.515 588.83 235.62 593.095L196.452 506.76L265.057 474.624L284.458 517.822Z" fill="#8D14BF"/>
<path d="M284.458 517.822L239.72 536.548C239.72 536.548 243.515 588.83 235.62 593.095L196.452 506.76L265.057 474.624L284.458 517.822Z" fill="#8D14BF"/>
<g opacity="0.6">
<path d="M230.846 507.625C232.376 508.799 232.132 511.642 230.785 513.002C229.439 514.3 226.562 513.867 225.4 512.384C224.237 510.901 224.543 508.429 226.012 507.316C227.542 506.142 229.928 506.451 231.152 507.872" fill="white"/>
</g>
<path d="M196.268 506.513L203.184 503.237L238.252 587.471C238.252 587.471 238.313 592.044 235.436 592.847L196.268 506.513Z" fill="#263238"/>
<path d="M240.577 537.536C240.149 537.722 239.047 535.682 236.722 534.199C234.518 532.716 232.193 532.469 232.193 531.974C232.07 531.604 234.886 531.047 237.64 532.84C240.394 534.632 241.006 537.413 240.577 537.536Z" fill="#263238"/>
<path d="M241.006 548.29C240.638 548.599 239.108 547.054 236.66 546.436C234.274 545.756 232.193 546.312 232.009 545.879C231.764 545.509 234.09 544.087 237.089 544.891C240.088 545.694 241.373 548.104 241.006 548.29Z" fill="#263238"/>
<path d="M232.56 558.425C232.315 558.054 234.151 556.509 236.905 556.509C239.72 556.509 241.495 558.116 241.25 558.425C241.006 558.857 239.17 558.116 236.905 558.116C234.641 558.116 232.805 558.796 232.56 558.425Z" fill="#263238"/>
<path d="M250.308 532.098C249.88 532.098 249.574 529.873 248.35 527.587C247.126 525.238 245.473 523.755 245.779 523.384C245.963 523.013 248.288 524.064 249.757 526.845C251.165 529.564 250.736 532.16 250.308 532.098Z" fill="#263238"/>
<path d="M259.549 525.362C259.366 525.424 258.386 523.879 257.591 521.036C257.224 519.553 256.979 517.822 256.918 515.845C256.918 514.856 256.979 513.826 257.101 512.755C257.162 512.26 257.224 511.642 257.53 510.962C257.774 510.344 258.754 509.541 259.672 509.788C260.528 509.912 261.14 510.53 261.446 511.148C261.752 511.828 261.875 512.384 261.997 512.878C262.181 513.991 262.242 515.041 262.303 516.03C262.303 518.008 261.936 519.8 261.508 521.221C260.59 524.064 259.304 525.485 259.182 525.362C258.937 525.238 259.794 523.631 260.406 520.912C260.712 519.553 260.896 517.884 260.773 516.03C260.732 515.124 260.61 514.176 260.406 513.187C260.284 512.198 259.916 511.395 259.427 511.333C259.182 511.333 259.121 511.395 258.937 511.704C258.815 512.013 258.754 512.446 258.692 513.002C258.529 513.991 258.427 514.938 258.386 515.845C258.325 517.699 258.509 519.367 258.692 520.789C259.182 523.57 259.794 525.238 259.549 525.362Z" fill="#263238"/>
<path d="M258.692 525.053C258.57 524.929 259.672 523.446 262.303 522.025C263.65 521.345 265.302 520.727 267.26 520.418C268.24 520.294 269.28 520.294 270.382 520.356C271.483 520.48 272.891 520.541 273.809 522.086C274.237 522.952 273.87 523.94 273.442 524.435C272.952 524.991 272.524 525.3 272.034 525.609C271.116 526.227 270.137 526.66 269.158 526.969C267.199 527.525 265.363 527.463 263.894 527.154C260.896 526.474 259.61 524.991 259.733 524.867C259.916 524.62 261.385 525.733 264.078 526.042C265.424 526.165 267.077 526.103 268.729 525.547C269.586 525.238 270.382 524.867 271.177 524.311C272.034 523.755 272.585 523.075 272.34 522.766C272.156 522.334 271.116 521.963 270.259 521.901C269.28 521.819 268.342 521.819 267.444 521.901C265.669 522.086 264.078 522.519 262.793 523.075C260.222 524.126 258.876 525.3 258.692 525.053Z" fill="#263238"/>
<path d="M230.296 443.971C230.296 443.971 244.066 449.41 249.512 453.427C254.959 457.505 357.959 493.473 357.959 493.473L339.048 547.795C339.048 547.795 289.354 534.137 269.402 528.266C249.512 522.395 165.607 484.388 144.616 474.13C123.563 463.871 119.768 442.859 121.237 427.1C122.645 411.403 141.678 402.009 153.857 400.402C175.583 397.498 234.641 419.807 234.641 419.807L230.296 443.971Z" fill="#263238"/>
<path d="M439.967 427.162C439.967 427.203 439.844 427.182 439.6 427.1C439.273 426.976 438.865 426.853 438.376 426.729C437.335 426.42 435.805 425.926 433.786 425.431C431.766 424.999 429.318 424.442 426.38 424.133C423.504 423.886 420.138 423.824 416.466 424.133C412.794 424.504 408.755 425.184 404.654 426.42C402.574 427.1 400.432 427.841 398.412 428.892C396.331 429.922 394.189 430.973 391.986 432.044C383.112 436.308 373.259 440.696 362.732 444.898C341.68 453.427 321.484 457.444 307.102 460.781C299.88 462.388 294.005 463.685 289.966 464.674C288.007 465.127 286.477 465.498 285.376 465.787C284.845 465.91 284.437 465.993 284.152 466.034C283.866 466.116 283.723 466.137 283.723 466.096C283.723 466.096 283.866 466.054 284.152 465.972C284.437 465.89 284.825 465.787 285.314 465.663C286.355 465.354 287.946 464.921 289.966 464.427C293.944 463.376 299.758 461.955 306.979 460.286C321.361 456.887 341.557 452.809 362.488 444.28C373.014 440.078 382.867 435.752 391.741 431.549C393.944 430.478 396.086 429.428 398.167 428.398C400.248 427.347 402.39 426.544 404.471 425.926C408.694 424.628 412.733 424.01 416.405 423.701C420.138 423.392 423.504 423.454 426.442 423.763C429.379 424.133 431.827 424.69 433.847 425.184C435.866 425.74 437.396 426.235 438.437 426.605C438.926 426.77 439.314 426.914 439.6 427.038C439.844 427.12 439.967 427.162 439.967 427.162Z" fill="#455A64"/>
<path d="M436.907 419.313C436.846 419.437 435.071 419.066 432.194 418.757C429.318 418.448 425.279 418.201 420.872 418.448C416.405 418.695 412.427 419.313 409.612 419.931C406.735 420.549 405.022 421.043 405.022 420.982C404.96 420.92 405.389 420.734 406.184 420.487C406.919 420.24 408.082 419.869 409.489 419.498C412.366 418.757 416.344 418.015 420.811 417.83C425.279 417.583 429.379 417.892 432.256 418.324C433.724 418.571 434.887 418.757 435.683 418.942C436.478 419.128 436.907 419.251 436.907 419.313Z" fill="#455A64"/>
<path d="M209.794 435.566C209.732 435.628 208.08 434.392 205.265 432.6C202.45 430.808 198.349 428.645 193.576 426.914C188.802 425.246 184.273 424.381 180.968 423.948C177.664 423.515 175.583 423.515 175.583 423.392C175.583 423.33 176.072 423.33 177.052 423.268C177.97 423.268 179.316 423.33 180.968 423.515C184.334 423.763 188.924 424.628 193.759 426.358C198.594 428.089 202.694 430.313 205.51 432.229C206.917 433.156 208.019 433.96 208.692 434.578C209.426 435.196 209.855 435.505 209.794 435.566Z" fill="#455A64"/>
<path d="M239.414 516.586C239.414 516.586 239.578 516.648 239.904 516.772C240.23 516.895 240.679 517.081 241.25 517.328C242.413 517.822 244.127 518.626 246.452 519.553C251.042 521.407 257.836 523.94 266.587 526.845C284.029 532.592 309.121 539.885 339.109 547.548L338.803 547.733C344.372 532.036 350.554 514.732 357.041 496.563L357.224 496.934C350.003 493.967 342.353 490.754 334.58 487.54C284.764 466.837 239.965 448.235 209.488 435.566H209.426V435.505C204.286 430.066 199.634 425.246 195.228 421.414C190.822 417.521 186.782 414.554 183.355 412.33C179.928 410.167 177.113 408.745 175.216 407.756C174.236 407.303 173.502 406.953 173.012 406.706C172.523 406.5 172.278 406.376 172.278 406.335C172.278 406.335 172.523 406.459 173.012 406.706C173.543 406.912 174.277 407.221 175.216 407.633C177.174 408.622 179.989 409.981 183.478 412.144C186.966 414.307 191.005 417.274 195.473 421.167C199.879 424.999 204.592 429.757 209.732 435.196L209.61 435.134C240.149 447.803 284.947 466.343 334.825 486.984C342.598 490.198 350.248 493.349 357.469 496.378L357.714 496.439L357.653 496.748C351.104 514.979 344.923 532.222 339.354 547.919L339.232 548.166L338.987 548.104C308.999 540.441 283.907 533.025 266.465 527.154C257.774 524.188 250.981 521.592 246.391 519.738C244.066 518.811 242.352 517.946 241.189 517.451C240.618 517.163 240.19 516.957 239.904 516.833C239.578 516.669 239.414 516.586 239.414 516.586Z" fill="#455A64"/>
<path d="M385.499 229.896C385.499 229.896 402.512 239.784 405.94 251.402C408.082 258.448 423.932 348.737 426.442 366.598C428.951 384.52 423.626 397.559 416.099 403.492C408.632 409.363 385.805 417.274 385.805 417.274L353.736 427.718L344.556 404.11L375.095 359.861L372.157 330.012L385.499 229.896Z" fill="#8D14BF"/>
<path d="M385.438 229.711L359.734 422.156L235.62 425.74L232.07 300.348V300.224C226.562 306.095 212.18 321.175 206.06 325.501C198.778 330.63 186.109 336.377 175.216 336.872C167.872 337.243 158.386 332.113 155.693 330.383C147.308 325.006 148.532 307.64 147.859 301.337C147.431 297.629 151.654 288.606 155.142 281.87C157.774 276.802 162.976 273.65 168.606 273.65H189.108C189.108 273.65 218.423 234.16 224.604 225.199C230.112 217.227 235.926 215.188 239.108 214.57L286.416 204.805C286.416 204.805 295.841 217.103 311.692 218.772C327.604 220.441 339.232 206.721 339.232 206.721L352.022 214.075C353.246 214.075 385.438 229.711 385.438 229.711Z" fill="#8D14BF"/>
<path d="M231.642 247.694C231.826 247.694 232.132 263.206 232.376 282.426C232.56 301.584 232.621 317.096 232.438 317.096C232.254 317.158 231.948 301.584 231.703 282.426C231.52 263.268 231.458 247.694 231.642 247.694Z" fill="#263238"/>
<path d="M400.493 349.046C400.493 349.108 399.391 349.232 397.555 349.603C395.658 349.912 392.965 350.715 389.844 352.075C386.723 353.434 383.234 355.535 379.624 358.316C376.013 361.097 372.402 364.496 368.852 368.39C365.303 372.221 362.059 376.053 358.999 379.452C355.939 382.851 353.124 385.817 350.554 388.166C347.983 390.514 345.78 392.245 344.189 393.295C343.393 393.851 342.781 394.222 342.353 394.531C341.904 394.778 341.68 394.902 341.68 394.902C341.68 394.861 341.884 394.696 342.292 394.408C342.659 394.099 343.271 393.666 344.066 393.11C345.596 391.936 347.738 390.205 350.248 387.857C352.757 385.508 355.572 382.48 358.571 379.081C361.57 375.682 364.813 371.789 368.363 367.957C371.974 364.064 375.646 360.603 379.256 357.822C382.928 355.041 386.478 352.94 389.66 351.642C392.843 350.282 395.597 349.603 397.494 349.355C398.473 349.17 399.208 349.17 399.697 349.108C400.187 349.067 400.452 349.046 400.493 349.046Z" fill="#263238"/>
<path d="M403.308 340.58C403.308 340.703 401.411 340.951 398.473 341.754C395.474 342.619 391.496 344.102 387.457 346.513C383.479 348.923 380.236 351.766 378.094 353.99C376.013 356.215 374.85 357.822 374.789 357.698C374.728 357.698 374.972 357.266 375.462 356.586C375.952 355.844 376.747 354.856 377.788 353.681C379.868 351.333 383.051 348.428 387.151 345.956C391.252 343.484 395.291 342.063 398.351 341.321C399.82 340.951 401.044 340.765 401.962 340.642C402.818 340.58 403.247 340.518 403.308 340.58Z" fill="#263238"/>
<g opacity="0.3">
<path d="M186.476 308.197C190.026 304.118 193.453 299.792 194.861 294.415C196.574 287.926 195.35 280.078 194.8 274.886C196.819 277.915 197.798 280.078 199.145 283.477C200.491 286.876 201.103 290.645 200.185 294.168C199.022 298.432 195.779 301.708 192.719 304.859C186.721 310.792 178.826 320.371 172.278 318.579C178.153 317.034 182.682 312.523 186.476 308.197Z" fill="black"/>
</g>
<path d="M200.369 313.079C200.246 313.079 200.981 310.916 201.593 307.331C201.96 305.539 202.144 303.376 202.205 300.966C202.266 298.556 202.144 295.898 201.715 293.117C201.287 290.398 200.552 287.803 199.818 285.578C199.022 283.291 198.166 281.314 197.309 279.707C195.595 276.431 194.249 274.639 194.31 274.577C194.371 274.516 194.738 274.948 195.35 275.813C195.656 276.184 196.024 276.74 196.391 277.358C196.819 277.976 197.248 278.656 197.676 279.46C198.594 281.066 199.512 283.044 200.369 285.331C201.164 287.679 201.899 290.275 202.327 293.056C202.756 295.837 202.878 298.494 202.817 300.966C202.694 303.376 202.45 305.601 202.082 307.393C201.899 308.32 201.654 309.124 201.47 309.803C201.348 310.545 201.103 311.101 200.981 311.596C200.614 312.584 200.43 313.079 200.369 313.079Z" fill="#263238"/>
<path d="M291.618 209.687C291.679 209.811 290.21 210.676 288.742 212.098C287.212 213.457 286.171 214.817 286.049 214.693C285.865 214.631 286.661 213.025 288.313 211.603C289.904 210.12 291.557 209.502 291.618 209.687Z" fill="#263238"/>
<path d="M304.531 217.227C304.654 217.412 303.43 218.71 302.389 220.75C301.349 222.727 301.043 224.519 300.859 224.519C300.676 224.519 300.737 222.542 301.838 220.441C302.879 218.339 304.409 217.103 304.531 217.227Z" fill="#263238"/>
<path d="M326.624 225.137C326.441 225.137 325.951 223.407 325.217 221.368C324.482 219.328 323.809 217.66 323.932 217.598C324.115 217.474 325.094 219.019 325.829 221.182C326.563 223.283 326.808 225.076 326.624 225.137Z" fill="#263238"/>
<path d="M340.884 218.339C340.7 218.339 340.211 216.176 338.803 213.89C337.396 211.541 335.743 210.12 335.866 209.935C335.927 209.811 337.885 211.109 339.354 213.519C340.823 215.991 341.006 218.339 340.884 218.339Z" fill="#263238"/>
<path d="M381.704 258.942C381.888 258.942 379.807 276.061 377.053 297.196C374.299 318.27 371.912 335.389 371.729 335.327C371.545 335.327 373.626 318.208 376.38 297.073C379.195 275.999 381.582 258.88 381.704 258.942Z" fill="#263238"/>
<path d="M195.718 286.69C195.779 286.69 195.779 287.308 195.718 288.421C195.718 288.977 195.595 289.718 195.473 290.522C195.391 290.893 195.31 291.305 195.228 291.758C195.167 292.252 194.983 292.685 194.861 293.179C194.432 295.157 193.514 297.443 192.413 299.915C191.25 302.326 189.781 304.921 187.884 307.393C185.987 309.865 183.906 312.028 181.825 313.697C179.683 315.365 177.602 316.663 175.705 317.405C175.277 317.59 174.787 317.837 174.359 317.961C173.951 318.085 173.543 318.208 173.135 318.332C172.768 318.414 172.4 318.517 172.033 318.641C171.727 318.703 171.421 318.703 171.115 318.764C170.014 318.888 169.402 318.95 169.402 318.888C169.34 318.703 171.911 318.641 175.522 316.972C177.358 316.231 179.377 314.871 181.458 313.264C183.478 311.534 185.497 309.433 187.394 307.022C189.23 304.55 190.699 302.017 191.923 299.668C193.025 297.258 193.943 295.033 194.432 293.056C195.534 289.162 195.595 286.628 195.718 286.69Z" fill="#263238"/>
<g opacity="0.3">
<path d="M235.559 416.099L233.233 335.883C278.644 335.759 318.73 334.4 364.14 334.276C371.545 334.276 379.746 334.585 384.887 339.838C390.578 345.647 390.211 354.917 389.477 363.013C387.886 380.235 386.315 397.456 384.764 414.678C384.214 420.549 382.99 427.409 377.726 430.004L235.559 416.099Z" fill="black"/>
</g>
<path d="M220.565 341.198H378.094C381.888 341.26 384.581 346.327 384.397 350.097L378.767 441.561C378.583 445.207 375.646 447.988 372.035 447.988L225.216 447.741C221.666 447.741 218.668 444.96 218.484 441.376L213.649 348.305C213.466 344.411 216.587 341.136 220.565 341.198Z" fill="#E0E0E0"/>
<path d="M213.649 348.305C213.649 348.305 213.649 348.181 213.649 347.934C213.608 347.728 213.629 347.398 213.71 346.945C213.833 346.018 214.2 344.597 215.424 343.299C216.036 342.619 216.832 342.001 217.872 341.63C218.912 341.198 220.136 341.074 221.422 341.136C224.033 341.095 227.011 341.074 230.357 341.074C243.821 341.074 263.221 341.012 287.212 340.951C311.263 340.951 339.844 340.951 371.545 340.889C373.544 340.889 375.544 340.889 377.543 340.889C378.583 340.827 379.685 341.074 380.603 341.692C381.521 342.248 382.255 343.052 382.806 343.917C384.03 345.647 384.703 347.749 384.703 349.912C384.581 351.972 384.458 354.052 384.336 356.153C383.806 364.517 383.275 373.066 382.745 381.8C381.704 399.166 380.603 417.212 379.44 435.69L379.256 439.151C379.134 440.263 379.195 441.376 378.95 442.612C378.522 445.022 376.747 447.061 374.544 447.865C373.442 448.297 372.218 448.359 371.117 448.297H367.69C365.446 448.297 363.222 448.297 361.019 448.297C352.084 448.297 343.291 448.277 334.642 448.235C317.383 448.235 300.676 448.174 284.825 448.174C268.974 448.112 253.858 448.05 239.72 448.05C236.212 448.05 232.744 448.029 229.316 447.988C228.5 447.988 227.664 447.988 226.807 447.988C225.95 447.988 225.155 448.05 224.237 447.926C222.523 447.679 220.932 446.814 219.83 445.454C218.729 444.157 218.178 442.426 218.239 440.758C218.158 439.151 218.076 437.565 217.994 435.999C217.831 432.827 217.668 429.716 217.505 426.667C216.281 402.503 215.302 382.913 214.628 369.317C214.322 362.581 214.016 357.328 213.894 353.743C213.812 351.972 213.751 350.612 213.71 349.664C213.649 348.799 213.649 348.305 213.649 348.305C213.649 348.305 213.71 348.799 213.772 349.664C213.812 350.612 213.894 351.972 214.016 353.743C214.2 357.328 214.506 362.581 214.873 369.317C215.608 382.851 216.648 402.442 217.933 426.667C218.096 429.675 218.26 432.765 218.423 435.937C218.504 437.544 218.586 439.151 218.668 440.758C218.668 442.364 219.218 443.909 220.259 445.145C221.238 446.381 222.707 447.185 224.298 447.432C225.094 447.556 225.95 447.494 226.807 447.494C227.664 447.494 228.5 447.494 229.316 447.494C232.744 447.494 236.212 447.494 239.72 447.494C253.858 447.494 268.974 447.556 284.825 447.556C300.676 447.556 317.383 447.617 334.642 447.617C343.291 447.617 352.084 447.638 361.019 447.679C363.222 447.679 365.446 447.679 367.69 447.679H371.117C372.218 447.741 373.259 447.679 374.299 447.247C376.319 446.505 377.971 444.651 378.338 442.488C378.522 441.437 378.522 440.201 378.583 439.089L378.828 435.628C379.93 417.15 381.031 399.166 382.133 381.739C382.663 373.045 383.194 364.496 383.724 356.092C383.846 354.032 383.969 351.951 384.091 349.85C384.091 347.872 383.418 345.895 382.316 344.226C381.276 342.619 379.562 341.321 377.543 341.507C375.544 341.507 373.544 341.507 371.545 341.507C339.844 341.445 311.263 341.445 287.212 341.445C263.221 341.383 243.821 341.321 230.357 341.321C227.011 341.321 224.033 341.321 221.422 341.321C220.136 341.26 218.974 341.321 217.933 341.754C216.954 342.125 216.097 342.743 215.546 343.361C214.322 344.659 213.894 346.018 213.772 346.945C213.588 347.81 213.71 348.305 213.649 348.305Z" fill="#263238"/>
<path d="M308.754 393.666C308.754 398.486 304.898 402.442 300.125 402.442C295.351 402.442 291.434 398.486 291.434 393.666C291.434 388.846 295.351 384.952 300.125 384.952C304.898 384.952 308.754 388.846 308.754 393.666Z" fill="white"/>
<path d="M308.754 393.666C308.693 393.666 308.693 392.924 308.326 391.565C308.02 390.267 307.163 388.413 305.204 386.93C304.225 386.188 303.062 385.632 301.655 385.385C300.247 385.138 298.717 385.199 297.248 385.756C295.78 386.312 294.372 387.301 293.393 388.722C292.352 390.082 291.802 391.874 291.802 393.666C291.802 395.52 292.352 397.25 293.393 398.672C294.372 400.031 295.78 401.082 297.248 401.576C298.717 402.194 300.247 402.256 301.655 402.009C303.062 401.762 304.225 401.144 305.204 400.464C307.163 398.981 308.02 397.065 308.326 395.767C308.693 394.469 308.693 393.666 308.754 393.666C308.754 393.666 308.754 393.851 308.754 394.222C308.815 394.593 308.754 395.149 308.57 395.829C308.326 397.189 307.469 399.228 305.449 400.835C304.47 401.576 303.185 402.256 301.716 402.503C300.308 402.812 298.656 402.751 297.065 402.194C295.474 401.576 293.944 400.526 292.903 399.043C291.802 397.559 291.128 395.644 291.128 393.666C291.128 391.75 291.802 389.834 292.903 388.351C293.944 386.868 295.474 385.756 297.065 385.199C298.656 384.643 300.308 384.581 301.716 384.829C303.185 385.138 304.47 385.817 305.449 386.559C307.469 388.166 308.326 390.143 308.57 391.503C308.754 392.183 308.815 392.739 308.754 393.11C308.754 393.481 308.754 393.666 308.754 393.666Z" fill="#263238"/>
<path d="M218.606 358.625C218.79 358.625 219.524 374.261 220.198 393.542C220.932 412.824 221.36 428.459 221.177 428.459C220.993 428.459 220.32 412.824 219.586 393.542C218.851 374.261 218.423 358.625 218.606 358.625Z" fill="#263238"/>
<path d="M174.481 237.188C173.624 236.447 177.358 221.862 177.358 221.862C177.358 221.862 167.443 205.423 167.137 200.17C166.892 194.855 171.115 184.04 171.115 184.04L199.634 176.624C199.634 176.624 208.814 193.805 210.65 199.861C212.486 205.979 207.529 226.621 207.529 226.621L202.694 237.188C202.694 237.188 188.068 248.869 174.481 237.188Z" fill="#936760"/>
<path d="M167.198 203.322C167.198 203.322 165.974 201.159 164.2 196.895C162.425 192.569 160.16 188.305 164.2 185.894C166.586 184.473 168.484 185.215 168.484 185.215C168.484 185.215 167.872 181.568 170.075 180.209C172.217 178.849 174.298 179.838 174.298 179.838C174.298 179.838 173.624 174.709 176.684 172.546C180.601 169.765 184.64 172.298 184.64 172.298C184.64 172.298 182.131 149.803 181.948 148.567C181.152 144.241 182.743 140.348 187.088 141.398C188.68 141.831 189.536 143.5 191.372 150.854C193.27 158.146 196.207 170.692 196.207 170.692C196.207 170.692 201.226 179.467 203.612 184.226C205.999 189.046 210.65 199.861 211.079 202.766C212.058 210.244 207.713 220.07 207.713 220.07L177.358 221.862C177.358 221.862 168.361 205.423 167.198 203.322Z" fill="#936760"/>
<path d="M169.096 186.203C169.157 186.142 170.075 187.439 171.482 189.479C172.176 190.591 172.972 191.827 173.869 193.187C174.298 193.867 174.787 194.608 175.154 195.473C175.522 196.339 175.766 197.389 175.522 198.44C175.338 199.429 174.604 200.417 173.624 200.726C172.584 201.035 171.666 200.726 170.87 200.356C170.136 199.985 169.463 199.552 168.851 199.12C168.239 198.666 167.688 198.254 167.198 197.884C166.219 197.08 165.485 196.4 164.934 195.906C164.444 195.473 164.2 195.164 164.2 195.164C164.261 195.041 165.485 196.03 167.504 197.513C168.484 198.193 169.708 199.12 171.115 199.799C171.85 200.108 172.645 200.356 173.441 200.108C174.175 199.861 174.726 199.12 174.91 198.254C175.093 197.451 174.91 196.524 174.604 195.721C174.236 194.979 173.808 194.237 173.38 193.496C172.523 192.136 171.748 190.88 171.054 189.726C169.769 187.625 169.034 186.265 169.096 186.203Z" fill="#6F4C47"/>
<path d="M194.004 188.861C193.82 188.861 193.698 186.698 194.31 184.04C194.922 181.445 196.085 179.529 196.207 179.591C196.391 179.714 195.534 181.692 194.922 184.226C194.31 186.76 194.188 188.861 194.004 188.861Z" fill="#6F4C47"/>
<path d="M198.166 202.766C195.044 202.271 191.801 202.889 188.618 203.198C185.436 203.446 182.07 203.384 179.316 201.777C176.623 200.108 174.848 196.4 176.317 193.558C177.725 190.715 181.213 189.911 184.334 189.664C188.19 189.293 192.107 189.293 195.901 190.097C199.696 190.9 203.306 192.631 206.06 195.473" fill="#936760"/>
<path d="M198.166 202.766C198.166 202.828 197.309 202.704 195.779 202.704C194.249 202.704 192.046 203.013 189.292 203.322C187.884 203.507 186.354 203.631 184.702 203.569C183.049 203.446 181.274 203.137 179.622 202.271C177.908 201.344 176.501 199.799 175.828 197.76C175.46 196.771 175.399 195.659 175.583 194.608C175.828 193.496 176.44 192.507 177.235 191.765C178.949 190.22 181.152 189.788 183.11 189.479C185.13 189.232 187.027 189.108 188.863 189.108C192.535 189.108 195.901 189.664 198.533 190.591C201.164 191.518 203.123 192.754 204.286 193.743C204.898 194.237 205.387 194.67 205.632 194.979C205.918 195.267 206.06 195.432 206.06 195.473C205.999 195.473 205.387 194.855 204.163 193.928C202.939 193.063 200.981 191.889 198.349 191.024C195.779 190.159 192.535 189.664 188.863 189.726C187.088 189.726 185.13 189.85 183.172 190.097C181.274 190.406 179.194 190.9 177.664 192.26C176.929 192.878 176.44 193.805 176.195 194.732C176.011 195.659 176.072 196.709 176.378 197.575C176.99 199.429 178.337 200.912 179.867 201.715C181.458 202.58 183.172 202.889 184.763 203.013C186.354 203.137 187.884 203.013 189.23 202.889C191.984 202.642 194.249 202.395 195.779 202.457C196.574 202.519 197.186 202.58 197.554 202.642C197.962 202.725 198.166 202.766 198.166 202.766Z" fill="#6F4C47"/>
<path d="M177.602 184.844L186.354 204.991C185.069 205.423 182.254 206.721 181.091 206.041C179.622 205.114 178.826 203.569 178.031 202.024C175.338 196.833 172.523 191.456 169.34 186.574" fill="#936760"/>
<path d="M177.602 184.844C177.664 184.844 177.908 185.338 178.398 186.327C178.888 187.439 179.52 188.861 180.295 190.591C181.948 194.176 184.151 199.181 186.66 204.867L186.782 205.176L186.476 205.3C185.558 205.67 184.518 206.103 183.416 206.35C182.988 206.474 182.56 206.536 182.07 206.536C181.825 206.536 181.58 206.536 181.336 206.474C181.091 206.412 180.846 206.288 180.724 206.165C179.928 205.609 179.377 204.929 178.949 204.249C178.031 202.828 177.419 201.406 176.684 200.047C175.277 197.389 174.053 194.979 172.951 193.001C171.85 190.962 170.932 189.355 170.258 188.305C169.646 187.192 169.279 186.574 169.34 186.574C169.34 186.512 169.769 187.069 170.503 188.181C171.176 189.232 172.217 190.777 173.318 192.754C174.481 194.732 175.766 197.08 177.174 199.799C177.908 201.097 178.582 202.58 179.438 203.878C179.867 204.558 180.418 205.176 181.03 205.609C181.58 206.103 182.437 205.918 183.233 205.732C184.273 205.485 185.314 205.052 186.293 204.682L186.109 205.114C183.6 199.429 181.458 194.361 179.928 190.777C179.234 189.005 178.643 187.563 178.153 186.451C177.786 185.462 177.541 184.844 177.602 184.844Z" fill="#6F4C47"/>
<path d="M186.354 174.956C187.823 181.816 189.842 188.49 192.413 195.041C193.208 197.08 194.126 199.243 194.004 201.53C193.882 203.755 192.413 206.103 190.21 206.474C188.618 206.721 187.027 205.794 185.987 204.558C184.885 203.322 184.273 201.777 183.722 200.294C180.866 193.166 178.031 186.018 175.216 178.849" fill="#936760"/>
<path d="M186.354 174.956C186.354 174.956 186.415 175.182 186.538 175.636C186.66 176.13 186.823 176.748 187.027 177.49C187.517 179.158 188.129 181.507 189.047 184.411C189.904 187.316 191.066 190.777 192.535 194.485C193.208 196.339 194.126 198.316 194.31 200.603C194.371 201.777 194.188 202.951 193.637 204.002C193.147 205.114 192.29 206.103 191.128 206.536C189.904 207.03 188.618 206.845 187.578 206.227C186.476 205.732 185.681 204.805 185.069 203.878C183.845 201.962 183.294 199.923 182.498 198.069C181.03 194.361 179.744 190.962 178.643 188.119C177.602 185.338 176.746 183.052 176.072 181.383C175.828 180.641 175.603 180.023 175.399 179.529C175.277 179.117 175.216 178.89 175.216 178.849C175.256 178.849 175.358 179.055 175.522 179.467C175.726 179.962 175.991 180.559 176.317 181.259C176.99 182.928 177.908 185.215 179.071 187.934C180.234 190.777 181.58 194.114 183.049 197.822C183.845 199.676 184.457 201.777 185.558 203.507C186.17 204.434 186.905 205.176 187.823 205.67C188.802 206.165 189.904 206.35 190.883 205.918C191.862 205.547 192.596 204.682 193.086 203.755C193.576 202.766 193.759 201.715 193.698 200.665C193.514 198.563 192.658 196.586 191.984 194.732C190.516 190.962 189.414 187.501 188.618 184.597C187.762 181.63 187.15 179.22 186.782 177.551C186.619 176.727 186.497 176.089 186.415 175.636C186.334 175.182 186.313 174.956 186.354 174.956Z" fill="#6F4C47"/>
<path d="M207.835 225.199L194.8 274.886C194.8 274.886 196.819 287.494 194.8 294.971C192.719 302.449 176.44 322.781 167.994 317.899C159.61 313.017 155.02 292.376 155.754 289.595C156.55 286.752 175.889 229.093 175.889 229.093" fill="#936760"/>
<path d="M194.8 220.132C194.8 220.193 194.065 220.193 192.964 219.884C191.862 219.575 190.393 218.834 189.108 217.66C187.823 216.424 186.966 215.064 186.538 213.952C186.17 212.901 186.109 212.159 186.17 212.159C186.354 212.098 187.027 214.879 189.536 217.165C191.984 219.514 194.861 219.946 194.8 220.132Z" fill="#6F4C47"/>
<path d="M542.599 499.591C542.599 499.777 434.765 499.962 301.777 499.962C168.728 499.962 60.894 499.777 60.894 499.591C60.894 499.468 168.728 499.282 301.777 499.282C434.765 499.282 542.599 499.468 542.599 499.591Z" fill="#263238"/>
</svg>
