<svg id="visual" viewBox="0 0 960 540" width="960" height="540" xmlns="http://www.w3.org/2000/svg" xmlns:xlink="http://www.w3.org/1999/xlink" version="1.1"><path d="M0 259L20 260.7C40 262.3 80 265.7 120 275.5C160 285.3 200 301.7 240 301.2C280 300.7 320 283.3 360 282.2C400 281 440 296 480 304.8C520 313.7 560 316.3 600 308.3C640 300.3 680 281.7 720 284.7C760 287.7 800 312.3 840 314.2C880 316 920 295 940 284.5L960 274L960 541L940 541C920 541 880 541 840 541C800 541 760 541 720 541C680 541 640 541 600 541C560 541 520 541 480 541C440 541 400 541 360 541C320 541 280 541 240 541C200 541 160 541 120 541C80 541 40 541 20 541L0 541Z" fill="#715df2"></path><path d="M0 348L20 353.5C40 359 80 370 120 370C160 370 200 359 240 355.5C280 352 320 356 360 363.2C400 370.3 440 380.7 480 375.3C520 370 560 349 600 347.2C640 345.3 680 362.7 720 369.3C760 376 800 372 840 372.7C880 373.3 920 378.7 940 381.3L960 384L960 541L940 541C920 541 880 541 840 541C800 541 760 541 720 541C680 541 640 541 600 541C560 541 520 541 480 541C440 541 400 541 360 541C320 541 280 541 240 541C200 541 160 541 120 541C80 541 40 541 20 541L0 541Z" fill="#6b4bf8"></path><path d="M0 436L20 434.8C40 433.7 80 431.3 120 424.2C160 417 200 405 240 408.3C280 411.7 320 430.3 360 431.8C400 433.3 440 417.7 480 406.3C520 395 560 388 600 394C640 400 680 419 720 430.2C760 441.3 800 444.7 840 444.8C880 445 920 442 940 440.5L960 439L960 541L940 541C920 541 880 541 840 541C800 541 760 541 720 541C680 541 640 541 600 541C560 541 520 541 480 541C440 541 400 541 360 541C320 541 280 541 240 541C200 541 160 541 120 541C80 541 40 541 20 541L0 541Z" fill="#6733fc"></path><path d="M0 459L20 465.8C40 472.7 80 486.3 120 490.8C160 495.3 200 490.7 240 487C280 483.3 320 480.7 360 480.8C400 481 440 484 480 487.3C520 490.7 560 494.3 600 486.8C640 479.3 680 460.7 720 462.2C760 463.7 800 485.3 840 492.7C880 500 920 493 940 489.5L960 486L960 541L940 541C920 541 880 541 840 541C800 541 760 541 720 541C680 541 640 541 600 541C560 541 520 541 480 541C440 541 400 541 360 541C320 541 280 541 240 541C200 541 160 541 120 541C80 541 40 541 20 541L0 541Z" fill="#6600ff"></path></svg>